<?xml version="1.0" encoding="UTF-8"?>
<svg id="Layer_1" data-name="Layer 1" xmlns="http://www.w3.org/2000/svg" viewBox="0 0 928.96 191.3">
  <defs>
    <style>
      .cls-1 {
        fill: #e2fcfc;
      }
    </style>
  </defs>
  <path class="cls-1" d="M117.39,60.17c0,12.22-4.85,25.52-14.56,39.89-9.05,13.37-22.43,27.77-40.09,43.21-2.3,2.01-5.74,2.02-8.05,0-8.3-7.25-15.65-14.26-22.05-21.05-7.1-7.53-6.99-19.32.33-26.64l30.58-30.57c.71-.71,1.93-.21,1.93.8v8.84c0,3.47,2.81,6.28,6.28,6.28h3.3c3.47,0,6.28-2.81,6.28-6.28v-29.6c0-4.97-4.03-9-9-9h-29.57c-3.47,0-6.28,2.81-6.28,6.28v3.34c0,3.47,2.81,6.28,6.28,6.28h8.63c1.01,0,1.51,1.22.8,1.93l-25.33,25.34c-8.42,8.42-22.75,4.26-25.47-7.34-.94-4.01-1.41-7.92-1.41-11.73C0,41.82,5.91,27.21,17.72,16.32,29.5,5.44,43.18,0,58.71,0s29.19,5.44,41,16.32c11.79,10.89,17.68,25.5,17.68,43.85Z"/>
  <g>
    <path class="cls-1" d="M201.91,154.12h-52.05v-3.72c16.24-1.17,16.44-1.37,16.44-18.2V31.25c0-16.83-.39-16.83-16.63-18.2v-3.72h52.05v3.72c-16.24,1.17-16.44,1.37-16.44,18.2v54.2h60.26V31.25c0-16.83-.39-16.83-16.63-18.2v-3.72h52.05v3.72c-16.24,1.17-16.44,1.37-16.44,18.2v100.96c0,16.83.39,16.83,16.63,18.2v3.72h-52.05v-3.72c16.24-1.17,16.44-1.37,16.44-18.2v-41.29h-60.26v41.29c0,16.83.39,16.83,16.63,18.2v3.72Z"/>
    <path class="cls-1" d="M286.43,103.84c0-32.48,16.04-57.33,42.46-57.33,15.65,0,33.65,9.2,33.65,40.31l-56.94,5.87c.2,27.59,10.76,52.24,29.55,52.24,9.39,0,19.57-6.07,27.78-14.67l2.35,3.13c-8.41,10.17-20.94,22.7-38.74,22.7-21.33,0-40.11-17.61-40.11-52.24ZM306,83.49h37.96c-1.17-28.17-11.74-31.31-17.61-31.31-11.94,0-18.78,12.91-20.35,31.31Z"/>
    <path class="cls-1" d="M418.89,154.12v-11.35c-8.61,6.65-18.78,13.31-29.74,13.31-15.07,0-20.74-11.94-20.74-21.92,0-11.94,7.63-17.8,28.76-24.85l21.72-7.24v-21.13c0-20.15-4.5-28.96-15.26-28.96-19.57,0-4.7,26.81-22.31,26.81-7.44,0-9.98-4.5-9.98-8.61,0-11.54,21.13-23.68,39.52-23.68s26.02,10.37,26.02,29.15v52.63c0,20.54.78,20.74,14.67,22.11v3.72h-32.68ZM418.89,128.3v-19.37l-14.67,4.7c-13.5,4.5-17.41,10.57-17.41,18.39,0,6.85,3.52,13.7,11.74,13.7,7.24,0,18.78-4.7,20.35-17.41Z"/>
    <path class="cls-1" d="M506.35,154.12h-54.98v-3.72c15.85-1.17,16.44-1.57,16.44-22.11v-50.29c0-12.72-4.7-14.09-18.39-14.09v-3.72c15.26,0,24.26-4.5,32.87-13.7l3.52.98v16.83c9.78-12.91,17.81-17.81,27-17.81,8.61,0,14.67,4.11,14.67,10.76,0,5.28-3.72,10.37-9.59,10.37-8.22,0-7.83-10.17-15.07-10.17-8.61,0-17.02,12.33-17.02,38.35v32.48c0,20.54.78,20.74,20.54,22.11v3.72Z"/>
    <path class="cls-1" d="M577.17,154.12v-11.35c-8.61,6.65-18.78,13.31-29.74,13.31-15.07,0-20.74-11.94-20.74-21.92,0-11.94,7.63-17.8,28.76-24.85l21.72-7.24v-21.13c0-20.15-4.5-28.96-15.26-28.96-19.57,0-4.7,26.81-22.31,26.81-7.43,0-9.98-4.5-9.98-8.61,0-11.54,21.13-23.68,39.52-23.68s26.02,10.37,26.02,29.15v52.63c0,20.54.78,20.74,14.67,22.11v3.72h-32.68ZM577.17,128.3v-19.37l-14.67,4.7c-13.5,4.5-17.41,10.57-17.41,18.39,0,6.85,3.52,13.7,11.74,13.7,7.24,0,18.78-4.7,20.35-17.41Z"/>
    <path class="cls-1" d="M701.8,157.06l-21.91-62.42-20.35,62.42h-4.7l-33.26-89.03c-4.89-13.11-6.65-13.7-14.48-13.89v-3.72c5.87.39,12.13.78,18.78.78s13.5-.39,20.15-.78v3.72c-4.5.2-6.65.39-6.65,3.91,0,2.35.98,6.26,3.13,12.72l19.96,60.26,13.7-46.57-5.67-16.44c-4.89-13.89-6.26-13.89-11.54-13.89v-3.72c7.04.39,13.89.78,20.94.78s14.09-.39,20.94-.78v3.72c-8.61.2-11.94.59-11.94,5.09,0,2.35.98,6.07,2.54,11.54l18.2,60.26,16.24-52.83c2.74-9,4.3-14.67,4.3-18.2,0-5.28-3.52-5.67-12.33-5.87v-3.72c5.87.39,11.54.78,17.02.78s10.96-.39,15.65-.78v3.72c-8.61.39-9.59,1.37-14.28,15.26l-29.74,87.66h-4.7Z"/>
    <path class="cls-1" d="M801.39,154.12v-11.35c-8.61,6.65-18.78,13.31-29.74,13.31-15.07,0-20.74-11.94-20.74-21.92,0-11.94,7.63-17.8,28.76-24.85l21.72-7.24v-21.13c0-20.15-4.5-28.96-15.26-28.96-19.57,0-4.7,26.81-22.31,26.81-7.43,0-9.98-4.5-9.98-8.61,0-11.54,21.13-23.68,39.52-23.68s26.02,10.37,26.02,29.15v52.63c0,20.54.78,20.74,14.67,22.11v3.72h-32.68ZM801.39,128.3v-19.37l-14.67,4.7c-13.5,4.5-17.41,10.57-17.41,18.39,0,6.85,3.52,13.7,11.74,13.7,7.24,0,18.78-4.7,20.35-17.41Z"/>
    <path class="cls-1" d="M837.58,179.75c0-4.3,1.76-9.59,8.41-9.59,9.39,0,7.04,10.17,14.87,10.17,7.04,0,12.13-8.22,18.59-26.41l-33.65-85.9c-4.89-12.33-6.65-12.72-14.48-13.89v-3.72c6.85.39,14.09.78,21.72.78s15.46-.39,23.09-.78v3.72c-8.61.78-12.33,1.37-12.33,5.67,0,2.35,1.17,5.67,2.93,10.96l20.74,58.89,16.83-51.46c2.74-8.61,4.5-14.09,4.5-17.41,0-5.09-3.72-5.87-12.52-6.65v-3.72c5.87.39,11.54.78,17.02.78s10.96-.39,15.65-.78v3.72c-8.61,1.37-9.59,2.15-14.28,15.26l-27.2,77.29c-14.09,39.92-24.85,44.61-35.02,44.61-9,0-14.87-3.72-14.87-11.54Z"/>
  </g>
</svg>