<?xml version="1.0" encoding="UTF-8"?>
<svg id="Layer_1" data-name="Layer 1" xmlns="http://www.w3.org/2000/svg" viewBox="0 0 76.17 93.94">
  <defs>
    <style>
      .cls-1 {
        fill: #e4f4f7;
      }
    </style>
  </defs>
  <path class="cls-1" d="M76.17,39.04c0,7.93-3.15,16.56-9.45,25.89-5.87,8.68-14.55,18.02-26.01,28.04-1.49,1.3-3.73,1.31-5.22,0-5.39-4.7-10.16-9.26-14.31-13.66-4.61-4.89-4.54-12.53.21-17.28l19.84-19.83c.46-.46,1.25-.13,1.25.52v5.73c0,2.25,1.82,4.07,4.07,4.07h2.14c2.25,0,4.07-1.82,4.07-4.07v-19.21c0-3.22-2.61-5.84-5.84-5.84h-19.18c-2.25,0-4.07,1.82-4.07,4.07v2.17c0,2.25,1.82,4.07,4.07,4.07h5.6c.65,0,.98.79.52,1.25l-16.43,16.44c-5.46,5.46-14.76,2.76-16.53-4.76-.61-2.6-.92-5.14-.92-7.61,0-11.9,3.83-21.38,11.49-28.45C19.14,3.53,28.02,0,38.1,0s18.94,3.53,26.6,10.59c7.65,7.07,11.47,16.55,11.47,28.45Z"/>
</svg>