<?xml version="1.0" encoding="UTF-8"?>
<svg id="Layer_1" xmlns="http://www.w3.org/2000/svg" version="1.1" viewBox="0 0 76.2 93.9">
  <!-- Generator: Adobe Illustrator 29.0.1, SVG Export Plug-In . SVG Version: 2.1.0 Build 192)  -->
  <defs>
    <style>
      .st0 {
        fill: #e2fcfc;
      }
    </style>
  </defs>
  <path class="st0" d="M76.2,39c0,7.9-3.2,16.6-9.4,25.9-5.9,8.7-14.5,18-26,28-1.5,1.3-3.7,1.3-5.2,0-5.4-4.7-10.2-9.3-14.3-13.7-4.6-4.9-4.5-12.5.2-17.3l19.8-19.8c.5-.5,1.2-.1,1.2.5v5.7c0,2.2,1.8,4.1,4.1,4.1h2.1c2.2,0,4.1-1.8,4.1-4.1v-19.2c0-3.2-2.6-5.8-5.8-5.8h-19.2c-2.2,0-4.1,1.8-4.1,4.1v2.2c0,2.2,1.8,4.1,4.1,4.1h5.6c.7,0,1,.8.5,1.2l-16.4,16.4c-5.5,5.5-14.8,2.8-16.5-4.8C.3,44,0,41.5,0,39,0,27.1,3.8,17.6,11.5,10.6,19.1,3.5,28,0,38.1,0s18.9,3.5,26.6,10.6c7.7,7.1,11.5,16.5,11.5,28.5Z"/>
</svg>