<?xml version="1.0" encoding="UTF-8"?>
<svg id="Layer_1" data-name="Layer 1" xmlns="http://www.w3.org/2000/svg" viewBox="0 0 340.08 318.43">
  <path d="M258.66,83.92L156.61,6.86c-12.1-9.13-28.78-9.15-40.88-.04l-20.16,15.15-34.28,25.77-10.39,7.81v-30.71c0-6.85-5.33-12.46-12.07-12.92-.3-.03-.6-.04-.91-.04H12.97C5.8,11.88,0,17.68,0,24.84v259.62c0,18.75,15.2,33.97,33.97,33.97h204.22c18.77,0,33.97-15.22,33.97-33.97V111.03c0-10.65-4.99-20.69-13.5-27.11ZM122.51,72.43c3.76-3.76,8.28-5.64,13.57-5.64s9.8,1.88,13.57,5.64c3.76,3.77,5.64,8.29,5.64,13.57s-1.88,9.81-5.64,13.57-8.29,5.65-13.57,5.65-9.81-1.88-13.57-5.65c-3.77-3.76-5.65-8.28-5.65-13.57s1.88-9.8,5.65-13.57ZM172.59,140.11l-14.91,114.71c-1.14,8.77-8.6,15.33-17.44,15.33h-8.32c-8.84,0-16.31-6.56-17.45-15.33l-14.9-114.71c-.74-5.65.78-10.61,4.54-14.88,3.77-4.27,8.47-6.4,14.11-6.4h35.71c5.65,0,10.35,2.13,14.11,6.4,3.77,4.27,5.28,9.23,4.55,14.88Z"/>
</svg>