<?xml version="1.0" encoding="UTF-8"?>
<svg id="Layer_1" data-name="Layer 1" xmlns="http://www.w3.org/2000/svg" viewBox="0 0 350.67 318.43">
  <path d="M259.06,11.88h-24.96c-7.17,0-12.97,5.81-12.97,12.96v30.71L156.3,6.82c-12.11-9.1-28.79-9.09-40.88.05L13.37,83.92C4.86,90.34-.14,100.38-.14,111.03v173.42c0,18.76,15.21,33.98,33.98,33.98h204.21c18.77,0,33.98-15.22,33.98-33.98V24.84c0-7.16-5.81-12.96-12.97-12.96ZM192.59,94.78c3.51-3.51,7.73-5.27,12.65-5.27s9.14,1.75,12.65,5.27c3.51,3.5,5.27,7.73,5.27,12.65s-1.75,9.14-5.27,12.65c-3.5,3.5-7.72,5.26-12.65,5.26s-9.13-1.75-12.65-5.26c-3.5-3.5-5.26-7.73-5.26-12.65s1.75-9.14,5.26-12.65ZM239.26,157.84l-13.89,106.91c-1.06,8.16-8.02,14.28-16.26,14.28h-7.75c-8.24,0-15.19-6.11-16.25-14.28l-13.89-106.91c-.68-5.26.73-9.88,4.24-13.86,3.5-3.98,7.88-5.97,13.15-5.97h33.28c5.26,0,9.64,1.99,13.15,5.97,3.5,3.98,4.92,8.6,4.23,13.86Z"/>
</svg>