<?xml version="1.0" encoding="UTF-8"?>
<svg id="Layer_1" data-name="Layer 1" xmlns="http://www.w3.org/2000/svg" viewBox="0 0 350.67 318.43">
  <path d="M309.82,306.42c-8.84,0-16.31-6.56-17.45-15.33l-14.9-114.72c-.73-5.64.78-10.6,4.54-14.87,3.76-4.27,8.47-6.41,14.11-6.41h35.71c5.64,0,10.35,2.14,14.11,6.41,3.76,4.27,5.28,9.23,4.54,14.87l-14.9,114.72c-1.14,8.77-8.61,15.33-17.45,15.33h-8.32ZM313.98,141.49c-5.28,0-9.81-1.88-13.57-5.64-3.76-3.76-5.65-8.29-5.65-13.57s1.88-9.81,5.65-13.57,8.29-5.64,13.57-5.64,9.81,1.88,13.57,5.64c3.76,3.76,5.65,8.29,5.65,13.57s-1.88,9.81-5.65,13.57c-3.76,3.76-8.29,5.64-13.57,5.64Z"/>
  <path d="M221.13,24.84v30.7L156.3,6.82c-12.11-9.1-28.79-9.09-40.88.04L13.36,83.92C4.86,90.34-.14,100.38-.14,111.03v173.43c0,18.76,15.21,33.97,33.97,33.97h204.22c18.76,0,33.97-15.21,33.97-33.97V24.84c0-7.16-5.81-12.97-12.97-12.97h-24.96c-7.16,0-12.97,5.81-12.97,12.97ZM226.3,287.78H45.58c-8.32,0-15.07-6.75-15.07-15.07V120.17c0-6.84,3.22-13.28,8.68-17.4l83.58-62.87c7.74-5.83,18.41-5.83,26.16-.01l83.75,62.88c5.48,4.11,8.7,10.56,8.7,17.41v152.53c0,8.32-6.75,15.07-15.07,15.07Z"/>
</svg>