<?xml version="1.0" encoding="UTF-8"?>
<svg id="Layer_1" data-name="Layer 1" xmlns="http://www.w3.org/2000/svg" viewBox="0 0 340.08 318.43">
  <path d="M262.76,87.56c-6.94,8.93-10.58,19.58-10.58,31.18,0,4.18.47,8.23,1.4,12.13-2.17,1.78-4.23,3.75-6.14,5.92-9.84,11.17-14.19,25.42-12.29,40.16l14.91,114.73c.98,7.56,3.65,14.55,7.61,20.61-5.51,3.87-12.23,6.14-19.48,6.14H33.97C15.2,318.43,0,303.21,0,284.46V24.84C0,17.68,5.8,11.88,12.97,11.88h24.95c.31,0,.61,0,.91.04,6.74.46,12.07,6.07,12.07,12.92v30.71l10.39-7.81,34.28-25.77,20.16-15.15c12.1-9.11,28.78-9.09,40.88.04l102.05,77.06c1.47,1.11,2.84,2.33,4.1,3.64Z"/>
  <g>
    <path d="M322.62,118.74c0,5.29-1.89,9.81-5.65,13.57s-8.29,5.64-13.57,5.64-9.81-1.88-13.57-5.64c-3.76-3.76-5.65-8.28-5.65-13.57s1.89-9.81,5.65-13.57c3.76-3.76,8.29-5.64,13.57-5.64s9.81,1.88,13.57,5.64c3.76,3.76,5.65,8.29,5.65,13.57Z"/>
    <path d="M339.91,172.84l-14.9,114.72c-1.14,8.77-8.61,15.33-17.45,15.33h-8.32c-8.84,0-16.31-6.56-17.45-15.33l-9.63-74.14-5.27-40.58c-.73-5.64.78-10.6,4.54-14.87.24-.27.48-.53.73-.78,3.64-3.75,8.1-5.62,13.38-5.62h35.71c5.65,0,10.35,2.13,14.12,6.4,3.76,4.27,5.27,9.23,4.54,14.87Z"/>
  </g>
</svg>